[Header]
FileType HTR
DataType HTRS
FileVersion 1
NumSegments 28
NumFrames 4
DataFrameRate 24
EulerRotationOrder ZYX
CalibrationUnits mm
RotationUnits Degrees
GlobalAxisofGravity Y
BoneLengthAxis Y
ScaleFactor 1.0
[SegmentNames&Hierarchy]
waist	GLOBAL
chest	waist
head	chest
joint2	chest
right_shoulder1	joint2
right_elbow1	right_shoulder1
right_wrist1	right_elbow1
right_hand1	right_wrist1
right_finger3	right_hand1
right_finger4	right_hand1
right_finger5	right_hand1
joint3	chest
right_shoulder2	joint3
right_elbow2	right_shoulder2
right_wrist2	right_elbow2
right_hand2	right_wrist2
right_finger6	right_hand2
right_finger7	right_hand2
right_finger8	right_hand2
Center_pelvis	waist
left_pelvs	Center_pelvis
left_leg	left_pelvs
left_knee	left_leg
left_foot	left_knee
right_pelvis	Center_pelvis
right_leg	right_pelvis
right_knee	right_leg
right_foot	right_knee
[BasePosition]
waist	0	0	0	179.9999991	0	91.33221985	1
chest	0	0	0	-2.307808268e-010	-1.984983424e-008	1.332219854	1
head	0	0	0	180	-1.481061187e-024	90	1
joint2	0	0	0	4.615476202e-010	-1.707085745e-006	90	1
right_shoulder1	0	0	0	1.916575325e-008	-1.983803253e-008	-88.02506599	1
right_elbow1	0	0	0	-180	-1.948815659e-008	-12.92899665	1
right_wrist1	0	0	0	3.256551172e-010	1.942478841e-008	1.920938916	1
right_hand1	0	0	0	136.2194085	85.17676588	-133.4832578	1
right_finger3	0	0	0	154.4596717	79.84057755	147.6247455	1
right_finger4	0	0	0	154.4596717	79.84057755	147.6247455	1
right_finger5	0	0	0	154.4596717	79.84057755	147.6247455	1
joint3	0	0	0	-180	-1.89575832e-022	90	1
right_shoulder2	0	0	0	6.774897105e-015	-7.012540931e-015	-88.02506599	1
right_elbow2	0	0	0	-180	-6.888863384e-015	-12.92899665	1
right_wrist2	0	0	0	-1.240805042e-012	-7.401196581e-011	1.920938916	1
right_hand2	0	0	0	136.2194085	85.17676588	-133.4832578	1
right_finger6	0	0	0	154.4596717	79.84057755	147.6247455	1
right_finger7	0	0	0	154.4596717	79.84057755	147.6247455	1
right_finger8	0	0	0	154.4596717	79.84057755	147.6247455	1
Center_pelvis	0	0	0	-180	-8.537716493e-007	89.87586122	1
left_pelvs	0	0	0	0	0	-1.456358634	1
left_leg	0	0	0	179.9999991	0	88.69804733	1
left_knee	0	0	0	-180	-7.863991589e-009	-2.076172838	1
left_foot	0	0	0	179.9999985	-3.055580289e-010	-90.77422016	1
right_pelvis	0	0	0	0	0	-2.39554958	1
right_leg	0	0	0	0	0	-87.75885638	1
right_knee	0	0	0	179.9999991	3.702652968e-022	-2.076172838	1
right_foot	0	0	0	180	-7.405305937e-025	-90.77422016	1
[waist]
6	0	-3.152148962	0	1.823863387	-13.80161572	1.340750337	1.0
7	0	-3.152148962	0	1.823863387	-13.80161572	1.340750337	1.0
8	0	-3.152148962	0	1.823863387	-13.80161572	1.340750337	1.0
9	0	-3.152148962	0	1.823863387	-13.80161572	1.340750337	1.0
[chest]
6	22.22800255	-0.5191411376	-12.8800211	-17.63924217	29.48032379	-2.74306035	1.0
7	22.69606018	-0.5269634128	-13.1232729	-20.75157547	29.79717064	-2.732456923	1.0
8	22.8176384	-0.5289952755	-13.18645668	-21.55999947	29.87947083	-2.729702711	1.0
9	22.68981171	-0.5268589854	-13.12002373	-20.71001434	29.79293823	-2.732598305	1.0
[head]
6	20.12665176	0.1883195043	1.356020212	-17.05191612	19.79331398	-2.641739845	1.0
7	20.0465889	0.1955666542	1.334062815	-18.1454792	22.59716415	-2.781530142	1.0
8	20.02579117	0.1974490881	1.328359246	-18.4295311	23.32546043	-2.817840338	1.0
9	20.04765701	0.1954698563	1.33435595	-18.25726509	22.43794441	-2.852980375	1.0
[joint2]
6	-1.657010078	17.01290512	0.01287616603	-31.66209412	16.15541077	-1.530042529	1.0
7	-1.657010078	17.01290512	0.01287616603	-36.4174118	20.10798264	-1.139566302	1.0
8	-1.657010078	17.01290512	0.01287616603	-37.9938736	21.41832352	-1.010117054	1.0
9	-1.657010078	17.01290512	0.01287616603	-36.58440781	20.24679184	-1.125853181	1.0
[right_shoulder1]
6	14.91590023	0.6211000085	0.9477797747	-0.3328313828	-28.52179718	-1.335897088	1.0
7	14.91590023	0.6211000085	0.9477797747	-0.06862679869	-31.26536369	-0.2754498124	1.0
8	14.91590023	0.6211000085	0.9477797747	0	-31.97800064	0	1.0
9	14.91590023	0.6211000085	0.9477797747	-0.1590440571	-31.7588501	-0.07251900434	1.0
[right_elbow1]
6	-13.64346027	1.083028078	-0.5017899871	4.903916359	22.01850128	0.2303846031	1.0
7	-13.64346027	1.083028078	-0.5017899871	4.903916359	22.01850128	0.2303846031	1.0
8	-13.64346027	1.083028078	-0.5017899871	4.903916359	22.01850128	0.2303846031	1.0
9	-13.64346027	1.083028078	-0.5017899871	4.92683506	22.48185539	0.2783567905	1.0
[right_wrist1]
6	-11.07325459	0.004849368241	0.6145500541	-8.540507317	19.63985634	-30.54888344	1.0
7	-11.07325459	0.004849368241	0.6145500541	-9.5228405	20.2940712	-33.60196686	1.0
8	-11.07325459	0.004849368241	0.6145500541	-9.777999878	20.4640007	-34.39500046	1.0
9	-11.02748299	0.2038848698	0.6322520971	-9.520103455	20.82438469	-33.58760452	1.0
[right_hand1]
6	-7.870647907	-0.6475095749	0.1588415354	21.62997437	21.61053276	22.94654274	1.0
7	-7.870647907	-0.6475095749	0.1588415354	22.92311096	20.96236229	23.41207886	1.0
8	-7.870647907	-0.6475095749	0.1588415354	23.25900078	20.79400063	23.53300095	1.0
9	-7.870647907	-0.6475095749	0.1588415354	23.17420006	20.83916664	23.83321381	1.0
[right_finger3]
6	10.07661057	3.347557783	-1.489186764	-84.28975677	13.1826582	87.76701355	1.0
7	10.07661057	3.347557783	-1.489186764	-84.28975677	13.1826582	87.76701355	1.0
8	10.07661057	3.347557783	-1.489186764	-84.28975677	13.1826582	87.76701355	1.0
9	10.07661057	3.347557783	-1.489186764	-84.28975677	13.1826582	87.76701355	1.0
[right_finger4]
6	-1.201135993	3.376283169	11.27149582	-190.2575378	16.2514534	124.4265747	1.0
7	-1.201135993	3.376283169	11.27149582	-190.2575378	16.2514534	124.4265747	1.0
8	-1.201135993	3.376283169	11.27149582	-190.2575378	16.2514534	124.4265747	1.0
9	-1.201135993	3.376283169	11.27149582	-190.2575378	16.2514534	124.4265747	1.0
[right_finger5]
6	-6.853637218	4.493112087	-5.936321735	34.39846039	4.028532028	79.4876709	1.0
7	-6.853637218	4.493112087	-5.936321735	34.39846039	4.028532028	79.4876709	1.0
8	-6.853637218	4.493112087	-5.936321735	34.39846039	4.028532028	79.4876709	1.0
9	-6.853637218	4.493112087	-5.936321735	34.39846039	4.028532028	79.4876709	1.0
[joint3]
6	-1.657010078	-17.01289368	0.01287565939	6.204057217	-9.590435028	3.254788399	1.0
7	-1.657010078	-17.01289368	0.01287565939	12.00747013	-13.88356781	7.152271748	1.0
8	-1.657010078	-17.01289368	0.01287565939	13.93139458	-15.30681038	8.444350243	1.0
9	-1.657010078	-17.01289368	0.01287565939	12.21127796	-14.03433609	7.2891469	1.0
[right_shoulder2]
6	-14.91590023	-0.6211000085	-0.9477797747	-4.871169567	38.08803558	-16.47016907	1.0
7	-14.91590023	-0.6211000085	-0.9477797747	-5.385265827	46.56764603	-18.03661537	1.0
8	-14.91590023	-0.6211000085	-0.9477797747	-5.518801689	48.77021408	-18.44349861	1.0
9	-14.91590023	-0.6211000085	-0.9477797747	-5.384533882	46.45513916	-17.99118423	1.0
[right_elbow2]
6	12.4936285	0.9811658859	2.438706398	9.513598442	45.5475235	4.544369221	1.0
7	12.40217113	1.145353436	2.5927701	9.203593254	44.0756073	4.136672497	1.0
8	12.37841415	1.188000917	2.632787704	9.123069763	43.69327927	4.030774117	1.0
9	12.35080719	1.076812625	2.604645252	9.518743515	42.64302063	5.005356789	1.0
[right_wrist2]
6	11.37348366	-5.659013271	-0.5602906942	2.639238596	23.23251915	4.341660976	1.0
7	11.37348366	-5.659013271	-0.5602906942	3.721300602	21.51125145	7.658798695	1.0
8	11.37348366	-5.659013271	-0.5602906942	4.002364635	21.06415367	8.520421028	1.0
9	11.37348366	-5.659013271	-0.5602906942	3.603441954	20.84969521	7.207871437	1.0
[right_hand2]
6	8.313048363	0.02588133886	-0.2132965624	7.624135494	28.51095963	19.2307415	1.0
7	8.313048363	0.02588133886	-0.2132965624	5.836369991	29.50166512	17.53457642	1.0
8	8.313048363	0.02588133886	-0.2132965624	5.372000217	29.75900078	17.09399986	1.0
9	8.313048363	0.02588133886	-0.2132965624	5.922290802	29.44113731	17.62126541	1.0
[right_finger6]
6	-10.07661057	-3.347557783	1.489186764	-83.6856308	28.25859642	89.45962524	1.0
7	-10.07661057	-3.347557783	1.489186764	-83.6856308	28.25859642	89.45962524	1.0
8	-10.07661057	-3.347557783	1.489186764	-83.6856308	28.25859642	89.45962524	1.0
9	-10.07661057	-3.347557783	1.489186764	-83.6856308	28.25859642	89.45962524	1.0
[right_finger7]
6	1.201135993	-3.376283169	-11.27149582	-196.815567	9.285179138	95.4122467	1.0
7	1.201135993	-3.376283169	-11.27149582	-196.815567	9.285179138	95.4122467	1.0
8	1.201135993	-3.376283169	-11.27149582	-196.815567	9.285179138	95.4122467	1.0
9	1.201135993	-3.376283169	-11.27149582	-196.815567	9.285179138	95.4122467	1.0
[right_finger8]
6	6.853637218	-4.493112087	5.936321735	33.30503464	-9.988982201	100.1356735	1.0
7	6.853637218	-4.493112087	5.936321735	33.30503464	-9.988982201	100.1356735	1.0
8	6.853637218	-4.493112087	5.936321735	33.30503464	-9.988982201	100.1356735	1.0
9	6.853637218	-4.493112087	5.936321735	33.30503464	-9.988982201	100.1356735	1.0
[Center_pelvis]
6	-5.616972446	-0.3766000271	2.04698658	0	0	0	1.0
7	-5.616972446	-0.3766000271	2.04698658	0	0	0	1.0
8	-5.616972446	-0.3766000271	2.04698658	0	0	0	1.0
9	-5.616972446	-0.3766000271	2.04698658	0	0	0	1.0
[left_pelvs]
6	11.07807541	2.015018225	0.4064739347	23.38847923	-0.07015824318	-2.579272747	1.0
7	11.07617378	2.342490435	0.4868750274	27.40503502	-0.01446598954	-0.5318225026	1.0
8	11.07567978	2.427550793	0.5077590942	28.44832993	0	0	1.0
9	11.07619858	2.338117361	0.4858013391	28.04896545	-0.1806773543	0.5575134754	1.0
[left_leg]
6	8.450808053e-008	-5.682914734	0.3641465604	0	34.73012543	-2.875890493	1.0
7	8.450808053e-008	-5.682914734	0.3641465604	0	38.01817322	-0.5929823518	1.0
8	8.450808053e-008	-5.682914734	0.3641465604	0	38.87224197	0	1.0
9	8.450808053e-008	-5.682914734	0.3641465604	0.2826683223	37.78852463	-0.01370876469	1.0
[left_knee]
6	-10.69747543	0.03457061574	-6.811455844e-009	0	-3.549908876	0	1.0
7	-10.69747543	0.03457061574	-6.811455844e-009	0	-4.122317314	0	1.0
8	-10.69747543	0.03457061574	-6.811455844e-009	0	-4.270999908	0	1.0
9	-10.69747543	0.03457061574	-6.811455844e-009	0.7296846509	-6.674653053	-0.6732869744	1.0
[left_foot]
6	-14.54718971	-0.01193539705	1.933258442e-009	9.600795746	0	0	1.0
7	-14.54718971	-0.01193539705	1.933258442e-009	11.14888573	0	0	1.0
8	-14.54718971	-0.01193539705	1.933258442e-009	11.55099964	0	0	1.0
9	-14.54718971	-0.01193539705	1.933258442e-009	10.09053135	0.3357025385	-0.1270001978	1.0
[right_pelvis]
6	-10.57928848	-0.8644044995	-0.1129784733	-20.08494949	-0.006278094836	-2.693924904	1.0
7	-10.5780611	-1.075789809	-0.1648778915	-25.22054672	-0.001294485992	-0.5554627776	1.0
8	-10.57774353	-1.130696774	-0.178358689	-26.55451012	0	0	1.0
9	-10.57807827	-1.072966933	-0.1641848385	-25.88841248	3.63793992e-018	0.3754312396	1.0
[right_leg]
6	0.09169664979	-5.593489647	0.06310817599	0	-31.90138626	0	1.0
7	0.09169664979	-5.593489647	0.06310817599	0	-39.6477623	0	1.0
8	0.09169664979	-5.593489647	0.06310817599	0	-41.65987396	0	1.0
9	0.09169664979	-5.593489647	0.06310817599	0.01774601638	-39.55846405	-0.353918463	1.0
[right_knee]
6	10.69750977	-0.03459574655	-4.718447855e-015	37.10873032	-44.3122406	-9.965116501	1.0
7	10.69750977	-0.03459574655	-4.718447855e-015	37.07004929	-41.27652359	-6.631819248	1.0
8	10.69750977	-0.03459574655	-4.718447855e-015	37.06000137	-40.48799896	-5.765999794	1.0
9	10.69750977	-0.03459574655	-4.718447855e-015	35.7035408	-39.11505508	-5.554953575	1.0
[right_foot]
6	14.54718685	0.01191107463	1.774880243e-010	-13.15450287	29.02286911	-10.57170105	1.0
7	14.54718685	0.01191107463	1.774880243e-010	-11.13782883	31.3313694	-11.41258144	1.0
8	14.54718685	0.01191107463	1.774880243e-010	-10.61400032	31.93099976	-11.63099957	1.0
9	14.54718685	0.01191107463	1.774880243e-010	-10.22550869	30.76226616	-11.20528316	1.0
[EndOfFile]
